<svg xmlns="http://www.w3.org/2000/svg" width="805" height="600"><rect width="805" height="600" x="0" y="0" fill="#FFFFFF" id="background"/><g transform="translate(402.5,300)" id="viz"><path fill="#eaabe7" display="" d="M0.999992072947904,-191.3307201165001A191.33333333333334,191.33333333333334,0,0,1,44.602395725005344,-186.0620077824446L22.05286478130715,-94.11756265108987A96.66666666666667,96.66666666666667,0,0,0,0.9999920729479188,-96.66149419649216Z"><title>Accipitriformes</title></path><path fill="#cccccc" display="" d="M46.544816092118865,-185.585625896499A191.33333333333334,191.33333333333334,0,0,1,71.96224378549469,-177.28474247323564L35.898301239703635,-89.75386572481398A96.66666666666667,96.66666666666667,0,0,0,23.995285148420706,-93.64118076514428Z"><title>Procellariiformes</title></path><path fill="#cccccc" display="" d="M73.81142301002032,-176.522854830983A191.33333333333334,191.33333333333334,0,0,1,77.25865083740241,-175.04155311019377L38.579952112086396,-88.6342582722593A96.66666666666667,96.66666666666667,0,0,0,37.7474804642293,-88.9919780825613Z"><title>Rheiformes</title></path><path fill="#cccccc" display="" d="M79.08409324581118,-174.22442607146763A191.33333333333334,191.33333333333334,0,0,1,165.2389443322326,96.46002135814501L83.73143985090893,48.30621517918856A96.66666666666667,96.66666666666667,0,0,0,40.405394520495186,-87.81713123353315Z"><title>Passeriformes</title></path><path fill="#cccccc" display="" d="M164.2216459653501,98.18195068787166A191.33333333333334,191.33333333333334,0,0,1,133.44573430350545,137.11557329728333L67.77401283416128,68.9284239541235A96.66666666666667,96.66666666666667,0,0,0,82.71414148402644,50.0281445089152Z"><title>Pelecaniformes</title></path><path fill="#ff5cf7" display="" d="M132.00521108896703,138.5029555273161A191.33333333333334,191.33333333333334,0,0,1,-100.16088212645249,163.02221362776098L-50.18169595582535,82.62107379743709A96.66666666666667,96.66666666666667,0,0,0,66.33348961962292,70.31580618415624Z"><title>Charadriiformes</title></path><path fill="#cccccc" display="" d="M-101.85943837226435,161.96635224308577A191.33333333333334,191.33333333333334,0,0,1,-118.9941510636746,149.82935779439168L-59.73075388124637,76.00448332317256A96.66666666666667,96.66666666666667,0,0,0,-51.880252201637184,81.56521241276188Z"><title>Podicipediformes</title></path><path fill="#cccccc" display="" d="M-120.55377698308318,148.57735796398285A191.33333333333334,191.33333333333334,0,0,1,-140.08930943323827,130.32048889933947L-70.43889631897191,66.20276678364408A96.66666666666667,96.66666666666667,0,0,0,-61.29037980065492,74.75248349276376Z"><title>Psittaciformes</title></path><path fill="#e6b5f6" display="" d="M-141.4438618387972,128.8490527422367A191.33333333333334,191.33333333333334,0,0,1,-190.5946500130417,16.796542229000327L-96.24876749621673,8.978819516153576A96.66666666666667,96.66666666666667,0,0,0,-71.79344872453082,64.73133062654135Z"><title>Anseriformes</title></path><path fill="#c6019c" display="" d="M-190.75980739476483,14.803389042941316A191.33333333333334,191.33333333333334,0,0,1,-190.51574755668585,-17.669023101507104L-96.29803145443516,-8.434072708072906A96.66666666666667,96.66666666666667,0,0,0,-96.41392487793985,6.985666330094606Z"><title>Falconiformes</title></path><path fill="#cccccc" display="" d="M-190.32064979185773,-19.659468641077048A191.33333333333334,191.33333333333334,0,0,1,-188.15003857542757,-34.756401259474L-95.1470157986665,-17.073073216405767A96.66666666666667,96.66666666666667,0,0,0,-96.10293368960704,-10.424518247642808Z"><title>Piciformes</title></path><path fill="#9467bd" display="" d="M-187.7764601988314,-36.72118516117276A191.33333333333334,191.33333333333334,0,0,1,-184.25493488774703,-51.56125884767117L-93.22258896851736,-25.573293695793467A96.66666666666667,96.66666666666667,0,0,0,-94.77343742207034,-19.037857118104483Z"><title>Cathartiformes</title></path><path fill="#cccccc" display="" d="M-183.7059125652051,-53.48441018679804A191.33333333333334,191.33333333333334,0,0,1,-172.01536467089235,-83.7804199176894L-87.12223288790351,-41.88270503525708A96.66666666666667,96.66666666666667,0,0,0,-92.67356664597544,-27.496445034920303Z"><title>Strigiformes</title></path><path fill="#cf17c1" display="" d="M-171.13023262613547,-85.57387408414564A191.33333333333334,191.33333333333334,0,0,1,-169.41931898330802,-88.91309689621983L-85.8239320098388,-44.482548699630655A96.66666666666667,96.66666666666667,0,0,0,-86.23710084314664,-43.67615920171329Z"><title>Galliformes</title></path><path fill="#cccccc" display="" d="M-168.48067824633057,-90.67913487732932A191.33333333333334,191.33333333333334,0,0,1,-150.71945059879474,-117.8647176030296L-76.45125520235928,-59.1578399067121A96.66666666666667,96.66666666666667,0,0,0,-84.88529127286137,-46.248586680740104Z"><title>Suliformes</title></path><path fill="#cccccc" display="" d="M-149.47920781127166,-119.43370913004044A191.33333333333334,191.33333333333334,0,0,1,-139.4911554651646,-130.96053600775207L-70.81236291877549,-65.80314355943852A96.66666666666667,96.66666666666667,0,0,0,-75.21101241483623,-60.72683143372291Z"><title>Phoenicopteriformes</title></path><path fill="#000000" display="" d="M-138.1146389613257,-132.41144568739932A191.33333333333334,191.33333333333334,0,0,1,-135.49163986613297,-135.09426327875875L-68.80241790703292,-67.90192732603722A96.66666666666667,96.66666666666667,0,0,0,-69.43584641493663,-67.25405323908572Z"><title>Caprimulgiformes</title></path><path fill="#e66dde" display="" d="M-134.07213310112888,-136.50314124648426A191.33333333333334,191.33333333333334,0,0,1,-131.3696776040452,-139.10590300434296L-66.73029469380697,-69.93934668355233A96.66666666666667,96.66666666666667,0,0,0,-67.38291114202886,-69.31080529376274Z"><title>Coraciiformes</title></path><path fill="#e377c2" display="" d="M-129.90846341618777,-140.47147602730405A191.33333333333334,191.33333333333334,0,0,1,-104.28244379232342,-160.41700770537193L-53.100396103041646,-80.77618694977205A96.66666666666667,96.66666666666667,0,0,0,-65.26908050594959,-71.30491970651336Z"><title>Columbiformes</title></path><path fill="#cccccc" display="" d="M-102.59995006398232,-161.4982807689072A191.33333333333334,191.33333333333334,0,0,1,-94.4545512360796,-166.39345598681237L-48.15060451326323,-83.82102200195223A96.66666666666667,96.66666666666667,0,0,0,-51.41790237470051,-81.85746001330736Z"><title>Tinamiformes</title></path><path fill="#de32ea" display="" d="M-92.71012418227355,-167.37167418219806A191.33333333333334,191.33333333333334,0,0,1,-68.47204782880321,-178.66175614992295L-35.055453210823124,-90.08640099719955A96.66666666666667,96.66666666666667,0,0,0,-46.40617745945713,-84.79924019733797Z"><title>Apodiformes</title></path><path fill="#cccccc" display="" d="M-66.60080293056973,-179.36771586171204A191.33333333333334,191.33333333333334,0,0,1,-35.30887627812924,-188.04714222880446L-18.32503059472477,-94.91384355375588A96.66666666666667,96.66666666666667,0,0,0,-33.184208312589604,-90.79236070898864Z"><title>Gruiformes</title></path><path fill="#cccccc" display="" d="M-33.341340164942324,-188.40594332570842A191.33333333333334,191.33333333333334,0,0,1,-0.9999920729480548,-191.3307201165001L-0.9999920729479735,-96.66149419649216A96.66666666666667,96.66666666666667,0,0,0,-16.357494481537817,-95.27264465065986Z"><title>Sphenisciformes</title></path><path fill="#eaabe7" display="" d="M0.9999920729479248,-287.99826391118063A288,288,0,0,1,16.307617418365762,-287.53793073981774L10.619050677372638,-193.04148139840092A193.33333333333334,193.33333333333334,0,0,0,0.9999920729479279,-193.33074715014118Z"><title>Buteo</title></path><path fill="#eaabe7" display="" d="M18.303987524949775,-287.4177517842043A288,288,0,0,1,24.94322460524807,-286.91782019646695L16.416801172486398,-192.6350601968417A193.33333333333334,193.33333333333334,0,0,0,12.615420783956672,-192.92130244278752Z"><title>Geranoaetus</title></path><path fill="#eaabe7" display="" d="M26.9350802245998,-286.737687535654A288,288,0,0,1,33.55629007205238,-286.03841594548146L22.199715456867057,-192.05455061365225A193.33333333333334,193.33333333333334,0,0,0,18.408656791838148,-192.45492753602878Z"><title>Pandion</title></path><path fill="#eaabe7" display="" d="M35.54183112208469,-285.7984923691677A288,288,0,0,1,42.13903000919355,-284.9005127230983L27.96256738846216,-191.30047726763124A193.33333333333334,193.33333333333334,0,0,0,24.185256506899385,-191.81462703733848Z"><title>Elanus</title></path><path fill="#eaabe7" display="" d="M44.11646211442927,-284.60101505529826A288,288,0,0,1,50.6836880129095,-283.5051388765467L33.70014895599207,-190.37352163082377A193.33333333333334,193.33333333333334,0,0,0,29.939999493697893,-191.00097959983125Z"><title>Parabuteo</title></path><path fill="#eaabe7" display="" d="M52.651224126096515,-283.14633777964275A288,288,0,0,1,59.18254209488767,-281.8535554347095L39.407274985540255,-189.2745214126608A193.33333333333334,193.33333333333334,0,0,0,35.667685069179115,-190.01472053391979Z"><title>Accipiter</title></path><path fill="#eaabe7" display="" d="M61.13840411199139,-281.43577516484794A288,288,0,0,1,67.62791166078901,-279.94725496850384L45.07878782650439,-188.00446980290332A193.33333333333334,193.33333333333334,0,0,0,41.36313700264399,-188.85674114279925Z"><title>Cinereous</title></path><path fill="#cccccc" display="" d="M69.57033202790255,-279.4708730825583A288,288,0,0,1,76.01216445136376,-277.78796024201415L50.709562012674546,-186.56451457407567A193.33333333333334,193.33333333333334,0,0,0,47.02120819361795,-187.5280879169577Z"><title>Thalassarche</title></path><path fill="#cccccc" display="" d="M77.93938776208391,-277.2534072563789A288,288,0,0,1,84.327723439886,-275.37762265559286L56.294508894225615,-184.9559570441994A193.33333333333334,193.33333333333334,0,0,0,52.636785323394705,-186.02996158844047Z"><title>Diomedea</title></path><path fill="#cccccc" display="" d="M86.23800802171108,-274.7853816571167A288,288,0,0,1,92.56707367967263,-272.71842048233935L61.828581236437635,-183.18025090076443A193.33333333333334,193.33333333333334,0,0,0,58.204793476050696,-184.36371604572324Z"><title>Ardenna</title></path><path fill="#cccccc" display="" d="M94.45869316798881,-272.06902669174923A288,288,0,0,1,100.72276909549998,-269.812756899548L67.30677778098877,-181.23900088700108A193.33333333333334,193.33333333333334,0,0,0,63.72020072475383,-182.53085711017428Z"><title>Oceanites</title></path><path fill="#cccccc" display="" d="M102.59401399373357,-269.1067971877589A288,288,0,0,1,108.7874392127798,-266.66325781690614L72.72414776569842,-179.1339613516394A193.33333333333334,193.33333333333334,0,0,0,69.17802267922237,-180.53304117521196Z"><title>Macronectes</title></path><path fill="#cccccc" display="" d="M110.63661843730544,-265.90137017465344A288,288,0,0,1,116.75379581841278,-263.2727695034038L78.07579539863559,-176.8670346634674A193.33333333333334,193.33333333333334,0,0,0,74.57332699022409,-178.37207370938674Z"><title>Rhea</title></path><path fill="#cccccc" display="" d="M118.57923822682156,-262.4556424646776A288,288,0,0,1,124.61463954730124,-259.64435601510036L83.35688428254983,-174.4402694921198A193.33333333333334,193.33333333333334,0,0,0,79.90123780704438,-176.04990762474125Z"><title>Anthus</title></path><path fill="#cccccc" display="" d="M126.4146954486474,-258.77272803490274A288,288,0,0,1,132.36286638856785,-255.78129642607206L88.56264178562584,-171.8558589566521A193.33333333333334,193.33333333333334,0,0,0,85.15694018389601,-173.56864151192212Z"><title>Upucerthia</title></path><path fill="#cccccc" display="" d="M134.13590903422948,-254.85595521305936A288,288,0,0,1,139.9914741056004,-251.6870818650433L93.68836335461177,-169.11613864357247A193.33333333333334,193.33333333333334,0,0,0,90.33568443128749,-170.9305177436394Z"><title>Anairetes</title></path><path fill="#cccccc" display="" d="M141.73590115940655,-250.70886366965755A288,288,0,0,1,147.49356856412132,-247.36541236038002L98.72941676642354,-166.22358449612267A193.33333333333334,193.33333333333334,0,0,0,95.43279040841793,-168.1379204481867Z"><title>Troglodytes</title></path><path fill="#cccccc" display="" d="M149.20780355041717,-246.33520121911144A288,288,0,0,1,154.862369962563,-242.82019349629525L103.68124631438315,-163.18081057671577A193.33333333333334,193.33333333333334,0,0,0,100.4436517527194,-165.19337335485406Z"><title>Cistothorus</title></path><path fill="#cccccc" display="" d="M156.5448636909042,-241.73892043275993A288,288,0,0,1,162.09121895911758,-238.05553288329045L108.53937692530694,-159.9905667045527A193.33333333333334,193.33333333333334,0,0,0,105.36374004272436,-162.09953751318042Z"><title>Zonotrichia</title></path><path fill="#cccccc" display="" d="M163.74045092430657,-236.92417506684444A288,288,0,0,1,176.1030606729626,-227.8853045319396L117.95706839957,-153.1793321318413A193.33333333333334,193.33333333333334,0,0,0,110.18860889049589,-158.85920888810668Z"><title>Sicalis</title></path><path fill="#cccccc" display="" d="M177.68132918063955,-226.65688884435258A288,288,0,0,1,189.47845395744793,-216.89148320276502L126.94845501219186,-145.81449704263045A193.33333333333334,193.33333333333334,0,0,0,119.53533690724691,-151.9509164442543Z"><title>Scelorchilus</title></path><path fill="#cccccc" display="" d="M190.98005503796583,-215.57044922181598A288,288,0,0,1,195.91228163285243,-211.09802913672576L131.2740657225548,-141.93272154950083A193.33333333333334,193.33333333333334,0,0,0,128.45005609270976,-144.49346306168144Z"><title>Eugralla</title></path><path fill="#cccccc" display="" d="M197.3734958207098,-209.73245611376473A288,288,0,0,1,202.1690592322422,-205.11380131319817L135.48104128089352,-137.92267845145196A193.33333333333334,193.33333333333334,0,0,0,132.73527991041217,-140.56714852653982Z"><title>Scytalopus</title></path><path fill="#cccccc" display="" d="M203.5885659972463,-203.70492334547268A288,288,0,0,1,219.82137828091368,-186.07138858695993L147.352694295922,-125.15974297476942A193.33333333333334,193.33333333333334,0,0,0,136.90054804589755,-136.51380048372647Z"><title>Cinclodes</title></path><path fill="#cccccc" display="" d="M221.10822227654012,-184.5403859368137A288,288,0,0,1,225.3150875416401,-179.37979631525687L151.04823298380356,-120.67397851338282A193.33333333333334,193.33333333333334,0,0,0,148.63953829154838,-123.62874032462317Z"><title>Lessonia</title></path><path fill="#cccccc" display="" d="M226.55533032916316,-177.81080478824606A288,288,0,0,1,230.6051747882487,-172.52609472448296L154.60726618612406,-116.07915842316724A193.33333333333334,193.33333333333334,0,0,0,152.2884757713266,-119.10498698637205Z"><title>Sylviorthorhynchus</title></path><path fill="#cccccc" display="" d="M231.79769553400763,-170.92053225146327A288,288,0,0,1,235.6868592569132,-165.51647764984602L158.02657752924037,-111.37943514030209A193.33333333333334,193.33333333333334,0,0,0,155.799786931883,-114.47359595014755Z"><title>Pygarrhichas</title></path><path fill="#cccccc" display="" d="M236.83058025466664,-163.87579521161112A288,288,0,0,1,261.5570237401789,-120.54842733183824L175.44442157357733,-81.2221196256947A193.33333333333334,193.33333333333334,0,0,0,159.17029852699378,-109.7387527020672Z"><title>Phrygilus</title></path><path fill="#cccccc" display="" d="M262.3878471801498,-118.72917776252962A288,288,0,0,1,265.0623484881203,-112.631928927646L177.8065650580433,-75.91181199284858A193.33333333333334,193.33333333333334,0,0,0,176.27524501354821,-79.40287005638608Z"><title>Diuca</title></path><path fill="#cccccc" display="" d="M265.83811249057544,-110.78852804983093A288,288,0,0,1,268.32813078084985,-104.61364266507081L180.008020985828,-70.53290124859095A193.33333333333334,193.33333333333334,0,0,0,178.58232906049847,-74.06841111503354Z"><title>Xolmis</title></path><path fill="#cccccc" display="" d="M269.0481342714388,-102.74775639914398A288,288,0,0,1,278.9401100843994,-71.6687866933936L187.16939416043175,-48.42928522490004A193.33333333333334,193.33333333333334,0,0,0,180.72802447641695,-68.66701498266413Z"><title>Muscisaxicola</title></path><path fill="#cccccc" display="" d="M279.43107716672847,-69.73000153048775A288,288,0,0,1,280.96832852167256,-63.25186453961237L188.54053423285725,-42.781359596985176A193.33333333333334,193.33333333333334,0,0,0,187.66036124276084,-46.490500061994204Z"><title>Elaenia</title></path><path fill="#cccccc" display="" d="M281.40079666644374,-61.29919767411974A288,288,0,0,1,282.7426299328774,-54.77778033692092L189.74128623343984,-37.09477154879971A193.33333333333334,193.33333333333334,0,0,0,188.9730023776284,-40.828692731492545Z"><title>Hirundo</title></path><path fill="#cccccc" display="" d="M283.1162083094735,-52.81299643522222A288,288,0,0,1,284.26141084426973,-46.254192294594006L190.77056501717874,-31.37466017033744A193.33333333333334,193.33333333333334,0,0,0,190.114864610036,-35.12998764710101Z"><title>Tachycineta</title></path><path fill="#cccccc" display="" d="M284.57576184200406,-44.279066973492064A288,288,0,0,1,285.52329870139033,-37.688803359574194L191.62744040304923,-25.626194847335306A193.33333333333334,193.33333333333334,0,0,0,191.08491601491303,-29.399534849235494Z"><title>Pygochelidon</title></path><path fill="#cccccc" display="" d="M285.77813823461184,-35.70512158163147A288,288,0,0,1,286.5271531094707,-29.089354255155598L192.3111380146266,-19.85457058959017A193.33333333333334,193.33333333333334,0,0,0,191.88227993627078,-23.64251306939258Z"><title>Passer</title></path><path fill="#cccccc" display="" d="M286.7222508742988,-27.09890871558572A288,288,0,0,1,287.2720668640326,-20.46361648552843L192.82103997990666,-14.065003336118437A193.33333333333334,193.33333333333334,0,0,0,192.50623577945476,-17.864125050020284Z"><title>Pteroptochos</title></path><path fill="#cccccc" display="" d="M287.4072465464874,-18.468205992099573A288,288,0,0,1,287.9826142538169,-3.1644727107822948L193.31777121402342,-2.452979946977378A193.33333333333334,193.33333333333334,0,0,0,192.95621966236143,-12.069592842689577Z"><title>Carduelis</title></path><path fill="#cccccc" display="" d="M287.99764553694564,-1.1645450510000492A288,288,0,0,1,287.9476057523222,5.493299691916407L193.30415157632902,3.3589821573500203A193.33333333333334,193.33333333333334,0,0,0,193.33280249715216,-0.4530522871951322Z"><title>Sturnella</title></path><path fill="#cccccc" display="" d="M287.90251529915,7.49277548193421A288,288,0,0,1,287.0971825175866,22.78613153792385L192.7530033220857,14.968549966306162A193.33333333333334,193.33333333333334,0,0,0,193.25906112315684,5.358457947367822Z"><title>Agriornis</title></path><path fill="#cccccc" display="" d="M286.93202513586346,24.7792847239828A288,288,0,0,1,286.2825363298248,31.405563083035936L192.2159727898809,20.755663858752772A193.33333333333334,193.33333333333334,0,0,0,192.58784594036257,16.961703152365114Z"><title>Geositta</title></path><path fill="#cccccc" display="" d="M286.05754226287655,33.392851248771514A288,288,0,0,1,285.20917055390635,39.996612755991805L191.5052326142069,26.524020418410956A193.33333333333334,193.33333333333334,0,0,0,191.99097872293274,22.742952024488353Z"><title>Molothrus</title></path><path fill="#cccccc" display="" d="M284.924543133634,41.9762399470214A288,288,0,0,1,283.8780552132041,48.55151664334526L190.6214251060055,32.26840665935222A193.33333333333334,193.33333333333334,0,0,0,191.2206051939346,28.503647609440545Z"><title>Phytotoma</title></path><path fill="#cccccc" display="" d="M283.5340516634325,50.521693828671275A288,288,0,0,1,282.2903932648288,57.062543497361716L189.56534898083035,37.983631258132554A193.33333333333334,193.33333333333334,0,0,0,190.27742155623383,34.23858384467823Z"><title>Aphrastura</title></path><path fill="#cccccc" display="" d="M281.8873244688477,59.021490186156726A288,288,0,0,1,280.447619512491,65.52200172291039L188.33795863703102,43.66452924530122A193.33333333333334,193.33333333333334,0,0,0,189.1622801848492,39.942577946927564Z"><title>Hymenops</title></path><path fill="#cccccc" display="" d="M279.98584973210353,67.46794757358442A288,288,0,0,1,278.3513993098389,73.92224632852165L186.94036329324285,49.305966673093025A193.33333333333334,193.33333333333334,0,0,0,187.87618885664358,45.610475095975254Z"><title>Pyrocephalus</title></path><path fill="#cccccc" display="" d="M277.8313458561704,75.85343274861737A288,288,0,0,1,276.0036270554427,82.25568583532768L185.3738259859625,54.90284525508562A193.33333333333334,193.33333333333334,0,0,0,186.4203098395744,51.23715309318874Z"><title>Tachuris</title></path><path fill="#cccccc" display="" d="M275.42575991180786,84.17036757079758A288,288,0,0,1,273.40642448078665,90.51478913764255L183.63976242811526,60.45010697362883A193.33333333333334,193.33333333333334,0,0,0,184.7959588423277,56.81752699055551Z"><title>Mimus</title></path><path fill="#cccccc" display="" d="M272.77126587795567,92.41123585007199A288,288,0,0,1,270.5621387328157,98.69209230898194L181.73973972964532,65.94273865088223A193.33333333333334,193.33333333333334,0,0,0,183.00460382528425,62.34655368605824Z"><title>Leptasthenura</title></path><path fill="#cccccc" display="" d="M269.87026267706295,100.56859013933257A288,288,0,0,1,267.47334025276837,106.7802053473714L179.67547498128528,71.37577647933021A193.33333333333334,193.33333333333334,0,0,0,181.04786367389258,67.81923648123286Z"><title>Curaeus</title></path><path fill="#cccccc" display="" d="M266.7253720071312,108.63505846483196A288,288,0,0,1,264.1428204532154,114.77181885384766L177.44883370278492,76.74431050767977A193.33333333333334,193.33333333333334,0,0,0,178.92750673564814,73.23062959679076Z"><title>Phleocryptes</title></path><path fill="#cccccc" display="" d="M263.3394359724306,116.60335098839205A288,288,0,0,1,260.5735891954006,122.65971063811708L175.06182815700151,82.0434890780874A193.33333333333334,193.33333333333334,0,0,0,176.64544922200008,78.57584264222415Z"><title>Agelaius</title></path><path fill="#cccccc" display="" d="M259.71551451502955,124.46626659538514A288,288,0,0,1,256.76887206916575,130.4367522454021L172.51661553137535,87.26852321070523A193.33333333333334,193.33333333333334,0,0,0,174.20375347663048,83.85004503535546Z"><title>Colorhamphus</title></path><path fill="#cccccc" display="" d="M255.85688264946094,132.21669940253378A288,288,0,0,1,252.73210747791666,138.0959153985765L169.81549598843367,92.41469093158322A193.33333333333334,193.33333333333334,0,0,0,171.60462611167057,89.0484703678369Z"><title>Melanodera</title></path><path fill="#cccccc" display="" d="M251.76702750302186,139.84764517964769A288,288,0,0,1,248.46694353126531,145.6302783497684L166.96091058708512,97.47734154001711A193.33333333333334,193.33333333333334,0,0,0,168.8504160135389,94.1664207126544Z"><title>Turdus</title></path><path fill="#cccccc" display="" d="M247.44964516438287,147.3522076794949A288,288,0,0,1,243.9772347481561,153.03303213568998L163.9554390765833,102.45189981148498A193.33333333333334,193.33333333333334,0,0,0,165.9436122202027,99.19927086974367Z"><title>Theristicus</title></path><path fill="#cccccc" display="" d="M242.90863734335443,154.72360487008675A288,288,0,0,1,239.26703857345507,160.29748673104257L160.80179756515253,107.33387013237476A193.33333333333334,193.33333333333334,0,0,0,162.88684167178164,104.14247254588169Z"><title>Plegadis</title></path><path fill="#cccccc" display="" d="M238.14810784482913,161.955175063743A288,288,0,0,1,234.34061171115155,167.41707709443293L157.50283606538346,112.11884056276506A193.33333333333334,193.33333333333334,0,0,0,159.68286683652659,108.99155846507517Z"><title>Bubuculcus</title></path><path fill="#cccccc" display="" d="M233.1723588600865,169.0403829374006A288,288,0,0,1,229.2024062774844,174.3853691013411L154.06153591861639,116.8024868235889A193.33333333333334,193.33333333333334,0,0,0,156.3345832143184,113.7421464057327Z"><title>Egretta</title></path><path fill="#cccccc" display="" d="M227.98588707881152,175.9728254387233A288,288,0,0,1,218.3094209084704,187.84301089635545L146.76448541114016,125.84897138944366A193.33333333333334,193.33333333333334,0,0,0,152.84501671994354,118.38994316097107Z"><title>Ardea</title></path><path fill="#cccccc" display="" d="M216.99970982281013,189.35449806333145A288,288,0,0,1,212.56448519458607,194.3201987286978L142.91532954943983,130.2036341948749A193.33333333333334,193.33333333333334,0,0,0,145.45477432547992,127.36045855641966Z"><title>Ixobrychus</title></path><path fill="#cccccc" display="" d="M211.2099327890272,195.7916348858005A288,288,0,0,1,206.62745045583176,200.62177528404735L138.93701807917068,134.44062921991244A193.33333333333334,193.33333333333334,0,0,0,141.56077714388098,131.67507035197758Z"><title>Nycticorax</title></path><path fill="#cccccc" display="" d="M205.22928086805655,202.05183066327402A288,288,0,0,1,200.50368211617695,206.74204569427832L134.83314628462196,138.55612740246283A193.33333333333334,193.33333333333334,0,0,0,137.5388484913955,135.8706845991391Z"><title>Pelecanus</title></path><path fill="#ff5cf7" display="" d="M199.0631589016384,208.12942792431122A288,288,0,0,1,187.71824510422869,218.4167128563854L126.26366686577599,146.4078693492468A193.33333333333334,193.33333333333334,0,0,0,133.3926230700835,139.94350963249568Z"><title>Gallinago</title></path><path fill="#ff5cf7" display="" d="M186.19695722950712,219.71502706568137A288,288,0,0,1,181.06813090200743,223.96055896441564L121.80580366142989,150.13701732807593A193.33333333333334,193.33333333333334,0,0,0,124.74237899105445,147.7061835585427Z"><title>Nycticryphes</title></path><path fill="#ff5cf7" display="" d="M179.5085049825989,225.21255879482447A288,288,0,0,1,174.25438159701034,229.30200717447613L117.23786197390987,153.73048330622083A193.33333333333334,193.33333333333334,0,0,0,120.2461777420214,151.3890171584847Z"><title>Recurvirostra</title></path><path fill="#ff5cf7" display="" d="M172.65782709987258,230.50656116724855A288,288,0,0,1,167.28315491871885,234.43623030675082L112.56396994881386,157.18501979240995A193.33333333333334,193.33333333333334,0,0,0,115.64130747677217,154.93503729899322Z"><title>Phegornis</title></path><path fill="#ff5cf7" display="" d="M165.65111468394713,235.59224988094536A288,288,0,0,1,160.16075091225028,239.35858845511297L107.78835148130263,160.4975048488946A193.33333333333334,193.33333333333334,0,0,0,110.93192971404217,158.34103936660446Z"><title>Pluvialis</title></path><path fill="#ff5cf7" display="" d="M158.494699849152,240.4650288913696A288,288,0,0,1,152.89360624487338,244.0646331803066L102.9153223988764,163.66494491280991A193.33333333333334,193.33333333333334,0,0,0,106.1223004182044,161.6039452851512Z"><title>Oreopholus</title></path><path fill="#ff5cf7" display="" d="M151.19504999906155,245.1204945649818A288,288,0,0,1,137.95148968730203,252.81096988274498L92.89473187959176,169.55337379951052A193.33333333333334,193.33333333333334,0,0,0,101.21676615306455,164.72080629748515Z"><title>Charadrius</title></path><path fill="#ff5cf7" display="" d="M136.19255612815752,253.7628571230996A288,288,0,0,1,130.29002130413787,256.84335761036783L87.75622626250322,172.26904112446357A193.33333333333334,193.33333333333334,0,0,0,91.13579832044725,170.5052610398651Z"><title>Pluvianellus</title></path><path fill="#ff5cf7" display="" d="M128.5032701786304,257.74194372161844A288,288,0,0,1,122.51080707072077,260.64363055881614L82.53841348610315,174.82902527033332A193.33333333333334,193.33333333333334,0,0,0,85.96947513699574,173.16762723571415Z"><title>Leucophaeus</title></path><path fill="#ff5cf7" display="" d="M120.69785310366471,261.4881034696725A288,288,0,0,1,82.09797262525382,276.0505803124186L55.42705107833717,185.21776315066865A193.33333333333334,193.33333333333334,0,0,0,80.72545951904708,175.67349818118976Z"><title>Larus</title></path><path fill="#ff5cf7" display="" d="M80.17900188992638,276.61404095948416A288,288,0,0,1,73.7631930355696,278.3935907186035L49.834626652392096,186.80012784844251A193.33333333333334,193.33333333333334,0,0,0,53.50808034300973,185.78122379773419Z"><title>Chroicocephalus</title></path><path fill="#ff5cf7" display="" d="M71.82815259217848,278.89911526427386A288,288,0,0,1,39.833646686161586,285.23197680428825L27.065685652144552,191.42942939359423A193.33333333333334,193.33333333333334,0,0,0,47.89958620900095,187.30565239411294Z"><title>Sterna</title></path><path fill="#ff5cf7" display="" d="M37.851936231670855,285.5017178994087A288,288,0,0,1,31.241985128118635,286.30043374967914L21.299362870923204,192.1564854983316A193.33333333333334,193.33333333333334,0,0,0,25.0839751976538,191.6991704887146Z"><title>Sternula</title></path><path fill="#ff5cf7" display="" d="M29.253062101754633,286.5104855981206A288,288,0,0,1,22.622089526779966,287.1101549326362L15.513791404607018,192.70988571952432A193.33333333333334,193.33333333333334,0,0,0,19.310439844559188,192.36653734677307Z"><title>Larosterna</title></path><path fill="#ff5cf7" display="" d="M20.627751360383474,287.2603277060969A288,288,0,0,1,5.3287745984353485,287.95069744884984L3.9058292606049916,193.29387542176494A193.33333333333334,193.33333333333334,0,0,0,13.519453238210508,192.86005849298505Z"><title>Thinocorus</title></path><path fill="#ff5cf7" display="" d="M3.3290163938030783,287.9807591660418A288,288,0,0,1,-3.3290163938020205,287.9807591660418L-1.9060710559719936,193.32393713895692A193.33333333333334,193.33333333333334,0,0,0,1.9060710559727039,193.32393713895692Z"><title>Attagis</title></path><path fill="#ff5cf7" display="" d="M-5.32877459843429,287.95069744884984A288,288,0,0,1,-11.98379888345515,287.7505665751518L-7.716248815787673,193.17928792184384A193.33333333333334,193.33333333333334,0,0,0,-3.9058292606042806,193.29387542176497Z"><title>Himantopus</title></path><path fill="#ff5cf7" display="" d="M-13.981749864266684,287.6604085909861A288,288,0,0,1,-37.851936231669804,285.5017178994088L-25.0839751976531,191.69917048871469A193.33333333333334,193.33333333333334,0,0,0,-9.714199796599228,193.08912993767808Z"><title>Haematopus</title></path><path fill="#ff5cf7" display="" d="M-39.833646686160535,285.2319768042884A288,288,0,0,1,-63.41239067246194,280.93214253481756L-42.24780420498816,188.66080890750672A193.33333333333334,193.33333333333334,0,0,0,-27.06568565214385,191.42942939359432Z"><title>Tringa</title></path><path fill="#ff5cf7" display="" d="M-65.36175208690682,280.48501094377525A288,288,0,0,1,-80.17900188992549,276.61404095948444L-53.508080343009134,185.78122379773436A193.33333333333334,193.33333333333334,0,0,0,-44.19716561943306,188.2136773164644Z"><title>Calidris</title></path><path fill="#ff5cf7" display="" d="M-82.09797262525292,276.0505803124189A288,288,0,0,1,-88.45739172642331,274.07898469046853L-59.06821809214417,184.0889007767624A193.33333333333334,193.33333333333334,0,0,0,-55.42705107833657,185.21776315066882Z"><title>Aphriza</title></path><path fill="#ff5cf7" display="" d="M-90.35855853921244,273.45809715332206A288,288,0,0,1,-96.65584074553749,271.29623744123927L-64.57497464222368,182.23021271933465A193.33333333333334,193.33333333333334,0,0,0,-60.969384904933314,183.46801323961589Z"><title>Arenaria</title></path><path fill="#ff5cf7" display="" d="M-98.53748551109538,270.6184841232222A288,288,0,0,1,-112.78335882389644,264.99795088339874L-75.40849059452071,178.02060926767402A193.33333333333334,193.33333333333334,0,0,0,-66.45661940778159,181.55245940131752Z"><title>Phalaropus</title></path><path fill="#ff5cf7" display="" d="M-114.62087722762416,264.208354340982A288,288,0,0,1,-120.69785310366375,261.488103469673L-80.72545951904644,175.67349818119A193.33333333333334,193.33333333333334,0,0,0,-77.24600899824846,177.23101272525727Z"><title>Vanellus</title></path><path fill="#ff5cf7" display="" d="M-122.51080707071982,260.6436305588166A288,288,0,0,1,-128.50327017862946,257.7419437216189L-85.9694751369951,173.1676272357145A193.33333333333334,193.33333333333334,0,0,0,-82.53841348610251,174.82902527033363Z"><title>Rynchops</title></path><path fill="#ff5cf7" display="" d="M-130.29002130413693,256.84335761036834A288,288,0,0,1,-136.19255612815658,253.7628571231001L-91.13579832044663,170.50526103986545A193.33333333333334,193.33333333333334,0,0,0,-87.75622626250258,172.26904112446388Z"><title>Stercorarius</title></path><path fill="#ff5cf7" display="" d="M-137.9514896873011,252.8109698827455A288,288,0,0,1,-143.75876198176448,249.55443965890566L-96.21976015377852,167.68880563033156A193.33333333333334,193.33333333333334,0,0,0,-92.89473187959113,169.55337379951087Z"><title>Numenius</title></path><path fill="#ff5cf7" display="" d="M-145.4882883890552,248.55011153009588A288,288,0,0,1,-151.19504999906056,245.1204945649824L-101.21676615306389,164.72080629748558A193.33333333333334,193.33333333333334,0,0,0,-97.94928656106927,166.68447750152174Z"><title>Limosa</title></path><path fill="#cccccc" display="" d="M-152.8936062448729,244.06463318030688A288,288,0,0,1,-165.6511146839467,235.59224988094567L-110.93192971404184,158.34103936660472A193.33333333333334,193.33333333333334,0,0,0,-102.91532239887609,163.66494491281014Z"><title>Podiceps</title></path><path fill="#cccccc" display="" d="M-167.2831549187184,234.43623030675113A288,288,0,0,1,-172.65782709987218,230.50656116724886L-115.64130747677187,154.93503729899345A193.33333333333334,193.33333333333334,0,0,0,-112.56396994881358,157.18501979241017Z"><title>Podilymbus</title></path><path fill="#cccccc" display="" d="M-174.25438159700988,229.30200717447647A288,288,0,0,1,-179.50850498259845,225.2125587948248L-120.24617774202108,151.38901715848496A193.33333333333334,193.33333333333334,0,0,0,-117.2378619739096,153.73048330622103Z"><title>Rollandia</title></path><path fill="#cccccc" display="" d="M-181.0681309020071,223.9605589644159A288,288,0,0,1,-192.71713934471933,214.01893421561567L-129.12584791162612,143.88986475385047A193.33333333333334,193.33333333333334,0,0,0,-121.8058036614297,150.13701732807607Z"><title>Enicognathus</title></path><path fill="#cccccc" display="" d="M-194.19871435469867,212.6754789414665A288,288,0,0,1,-199.0631589016381,208.1294279243115L-133.39262307008326,139.9435096324959A193.33333333333334,193.33333333333334,0,0,0,-130.6074229216055,142.54640947970125Z"><title>Myiopsitta</title></path><path fill="#cccccc" display="" d="M-200.5036821161765,206.74204569427877A288,288,0,0,1,-205.22928086805607,202.0518306632745L-137.53884849139519,135.87068459913942A193.33333333333334,193.33333333333334,0,0,0,-134.83314628462165,138.55612740246315Z"><title>Cyanoliseus</title></path><path fill="#cccccc" display="" d="M-206.6274504558313,200.62177528404783A288,288,0,0,1,-211.20993278902677,195.791634885801L-141.56077714388064,131.67507035197792A193.33333333333334,193.33333333333334,0,0,0,-138.9370180791704,134.44062921991278Z"><title>Psilopsiagon</title></path><path fill="#e6b5f6" display="" d="M-212.56448519458573,194.32019872869816A288,288,0,0,1,-238.14810784482881,161.95517506374344L-159.68286683652636,108.9915584650755A193.33333333333334,193.33333333333334,0,0,0,-142.9153295494396,130.20363419487515Z"><title>Chloephaga</title></path><path fill="#e6b5f6" display="" d="M-239.26703857345478,160.29748673104302A288,288,0,0,1,-242.90863734335414,154.72360487008717L-162.88684167178144,104.14247254588203A193.33333333333334,193.33333333333334,0,0,0,-160.80179756515233,107.33387013237504Z"><title>Coscoroba</title></path><path fill="#e6b5f6" display="" d="M-243.9772347481558,153.03303213569046A288,288,0,0,1,-247.44964516438262,147.3522076794954L-165.9436122202025,99.199270869744A193.33333333333334,193.33333333333334,0,0,0,-163.95543907658313,102.45189981148526Z"><title>Cygnus</title></path><path fill="#e6b5f6" display="" d="M-248.46694353126512,145.63027834976873A288,288,0,0,1,-251.76702750302164,139.84764517964805L-168.85041601353873,94.16642071265467A193.33333333333334,193.33333333333334,0,0,0,-166.960910587085,97.47734154001735Z"><title>Speculanas</title></path><path fill="#e6b5f6" display="" d="M-252.73210747791643,138.09591539857686A288,288,0,0,1,-275.42575991180775,84.17036757079798L-184.79595884232762,56.817526990555784A193.33333333333334,193.33333333333334,0,0,0,-169.81549598843353,92.41469093158346Z"><title>Anas</title></path><path fill="#e6b5f6" display="" d="M-276.0036270554425,82.25568583532808A288,288,0,0,1,-277.8313458561703,75.85343274861783L-186.42030983957432,51.23715309318906A193.33333333333334,193.33333333333334,0,0,0,-185.3738259859624,54.902845255085886Z"><title>Merganetta</title></path><path fill="#e6b5f6" display="" d="M-278.35139930983877,73.92224632852212A288,288,0,0,1,-279.9858497321034,67.46794757358495L-187.8761888566435,45.61047509597562A193.33333333333334,193.33333333333334,0,0,0,-186.94036329324277,49.30596667309333Z"><title>Lophonetta</title></path><path fill="#e6b5f6" display="" d="M-280.44761951249086,65.52200172291091A288,288,0,0,1,-281.8873244688475,59.02149018615733L-189.16228018484912,39.942577946927976A193.33333333333334,193.33333333333334,0,0,0,-188.33795863703097,43.664529245301566Z"><title>Netta</title></path><path fill="#e6b5f6" display="" d="M-282.29039326482865,57.06254349736232A288,288,0,0,1,-284.92454313363396,41.97623994702213L-191.22060519393455,28.50364760944105A193.33333333333334,193.33333333333334,0,0,0,-189.56534898083027,37.98363125813295Z"><title>Oxyura</title></path><path fill="#e6b5f6" display="" d="M-285.20917055390623,39.99661275599253A288,288,0,0,1,-286.0575422628765,33.39285124877232L-191.99097872293265,22.7429520244889A193.33333333333334,193.33333333333334,0,0,0,-191.50523261420685,26.524020418411432Z"><title>Heteronetta</title></path><path fill="#e6b5f6" display="" d="M-286.2825363298247,31.405563083036732A288,288,0,0,1,-286.9320251358634,24.779284723983668L-192.5878459403625,16.961703152365704A193.33333333333334,193.33333333333334,0,0,0,-192.21597278988088,20.755663858753294Z"><title>Tachyeres</title></path><path fill="#c6019c" display="" d="M-287.0971825175866,22.7861315379242A288,288,0,0,1,-287.5472014639112,16.14332463505751L-193.0106674446852,11.165125630055279A193.33333333333334,193.33333333333334,0,0,0,-192.75300332208568,14.968549966306387Z"><title>Phalcoboenus</title></path><path fill="#c6019c" display="" d="M-287.6523729041873,14.146107683400814A288,288,0,0,1,-287.83250620608845,-9.82081315991989L-193.23182492503057,-6.264153088815484A193.33333333333334,193.33333333333334,0,0,0,-193.11583888496128,9.167908678398565Z"><title>Falco</title></path><path fill="#c6019c" display="" d="M-287.7573667707476,-11.819385312505645A288,288,0,0,1,-287.40724654648744,-18.468205992099023L-192.95621966236146,-12.069592842689199A193.33333333333334,193.33333333333334,0,0,0,-193.15668548968966,-8.26272524140126Z"><title>Milvago</title></path><path fill="#c6019c" display="" d="M-287.2720668640326,-20.46361648552789A288,288,0,0,1,-286.7222508742989,-27.098908715585104L-192.50623577945476,-17.864125050019865A193.33333333333334,193.33333333333334,0,0,0,-192.82103997990666,-14.065003336118084Z"><title>Caracara</title></path><path fill="#cccccc" display="" d="M-286.5271531094707,-29.08935425515525A288,288,0,0,1,-285.7781382346119,-35.70512158163105L-191.8822799362708,-23.64251306939229A193.33333333333334,193.33333333333334,0,0,0,-192.31113801462664,-19.854570589589947Z"><title>Picoides</title></path><path fill="#cccccc" display="" d="M-285.52329870139033,-37.68880335957378A288,288,0,0,1,-284.5757618420041,-44.27906697349159L-191.0849160149131,-29.399534849235167A193.33333333333334,193.33333333333334,0,0,0,-191.62744040304926,-25.626194847335036Z"><title>Campephilus</title></path><path fill="#cccccc" display="" d="M-284.2614108442698,-46.25419229459354A288,288,0,0,1,-283.1162083094736,-52.81299643522167L-190.11486461003605,-35.12998764710064A193.33333333333334,193.33333333333334,0,0,0,-190.7705650171788,-31.374660170337126Z"><title>Colaptes</title></path><path fill="#9467bd" display="" d="M-282.74262993287743,-54.77778033692063A288,288,0,0,1,-281.4007966664438,-61.29919767411939L-188.97300237762846,-40.8286927314923A193.33333333333334,193.33333333333334,0,0,0,-189.74128623343987,-37.094771548799535Z"><title>Vultur</title></path><path fill="#9467bd" display="" d="M-280.9683285216727,-63.25186453961203A288,288,0,0,1,-279.4310771667286,-69.73000153048736L-187.66036124276093,-46.49050006199392A193.33333333333334,193.33333333333334,0,0,0,-188.54053423285734,-42.781359596984956Z"><title>Cathartes</title></path><path fill="#9467bd" display="" d="M-278.94011008439946,-71.6687866933932A288,288,0,0,1,-277.2088298875353,-78.09778890841616L-186.17812746701318,-52.11029294347103A193.33333333333334,193.33333333333334,0,0,0,-187.1693941604318,-48.42928522489978Z"><title>Coragyps</title></path><path fill="#cccccc" display="" d="M-276.6598075649933,-80.02094024754324A288,288,0,0,1,-274.73606312077084,-86.39499766132198L-184.52764057642455,-57.682992650136114A193.33333333333334,193.33333333333334,0,0,0,-185.62910514447123,-54.03344428259803Z"><title>Glaucidium</title></path><path fill="#cccccc" display="" d="M-274.1294817211108,-88.30077718409503A288,288,0,0,1,-272.01501155810644,-94.61412942601761L-182.7103921509359,-63.203563015300126A193.33333333333334,193.33333333333334,0,0,0,-183.9210591767645,-59.58877217290918Z"><title>Strix</title></path><path fill="#cccccc" display="" d="M-271.35141926177937,-96.50081483914032A288,288,0,0,1,-269.0481342714389,-102.74775639914367L-180.72802447641703,-68.66701498266389A193.33333333333334,193.33333333333334,0,0,0,-182.04679985460876,-65.09024842842284Z"><title>Tyto</title></path><path fill="#cccccc" display="" d="M-268.32813078085,-104.61364266507049A288,288,0,0,1,-265.83811249057555,-110.78852804983055L-178.58232906049858,-74.06841111503327A193.33333333333334,193.33333333333334,0,0,0,-180.0080209858281,-70.53290124859075Z"><title>Asio</title></path><path fill="#cccccc" display="" d="M-265.0623484881204,-112.6319289276456A288,288,0,0,1,-262.38784718015,-118.72917776252916L-176.27524501354833,-79.40287005638578A193.33333333333334,193.33333333333334,0,0,0,-177.80656505804342,-75.91181199284834Z"><title>Athene</title></path><path fill="#cccccc" display="" d="M-261.55702374017915,-120.54842733183779A288,288,0,0,1,-258.700456417959,-126.56252940400523L-173.80885729625624,-84.66557094325545A193.33333333333334,193.33333333333334,0,0,0,-175.44442157357744,-81.2221196256944Z"><title>Bubo</title></path><path fill="#cf17c1" display="" d="M-257.81532437320203,-128.35598357046166A288,288,0,0,1,-254.7792725770896,-134.2815038085629L-171.1853948354112,-89.85175776144925A193.33333333333334,193.33333333333334,0,0,0,-172.92372525149926,-86.45902510971183Z"><title>Callipela</title></path><path fill="#cccccc" display="" d="M-253.84063184011217,-136.04754178967232A288,288,0,0,1,-231.7976955340078,-170.92053225146304L-155.79978693188312,-114.47359595014741A193.33333333333334,193.33333333333334,0,0,0,-170.24675409843377,-91.6177957425587Z"><title>Phalacrocorax</title></path><path fill="#cccccc" display="" d="M-230.60517478824886,-172.52609472448273A288,288,0,0,1,-226.55533032916335,-177.81080478824583L-152.28847577132672,-119.10498698637187A193.33333333333334,193.33333333333334,0,0,0,-154.60726618612415,-116.07915842316712Z"><title>Sula</title></path><path fill="#cccccc" display="" d="M-225.3150875416403,-179.37979631525667A288,288,0,0,1,-221.1082222765403,-184.54038593681344L-148.63953829154852,-123.62874032462297A193.33333333333334,193.33333333333334,0,0,0,-151.04823298380367,-120.67397851338269Z"><title>Phoenicopterus</title></path><path fill="#cccccc" display="" d="M-219.8213782809139,-186.0713885869597A288,288,0,0,1,-209.6196488770952,-197.49329812589417L-140.9420962581808,-132.33708202966952A193.33333333333334,193.33333333333334,0,0,0,-147.3526942959221,-125.15974297476926Z"><title>Phoenicoparrus</title></path><path fill="#000000" display="" d="M-208.24313237325637,-198.94420780554137A288,288,0,0,1,-203.5885659972464,-203.70492334547254L-136.90054804589764,-136.51380048372638A193.33333333333334,193.33333333333334,0,0,0,-139.56557975434194,-133.78799170931674Z"><title>Caprimulgus</title></path><path fill="#e66dde" display="" d="M-202.16905923224238,-205.11380131319802A288,288,0,0,1,-197.37349582070996,-209.73245611376458L-132.73527991041232,-140.5671485265397A193.33333333333334,193.33333333333334,0,0,0,-135.48104128089358,-137.92267845145187Z"><title>Ceryle</title></path><path fill="#e377c2" display="" d="M-195.9122816328526,-211.0980291367256A288,288,0,0,1,-184.41402153678737,-221.21362675167487L-124.04874924026481,-148.2891957955929A193.33333333333334,193.33333333333334,0,0,0,-131.27406572255492,-141.93272154950074Z"><title>Zenaida</title></path><path fill="#e377c2" display="" d="M-182.8733905922915,-222.48892784423947A288,288,0,0,1,-177.68132918063984,-226.65688884435238L-119.53533690724713,-151.95091644425415A193.33333333333334,193.33333333333334,0,0,0,-122.50811829576892,-149.56449688815746Z"><title>Columba</title></path><path fill="#e377c2" display="" d="M-176.1030606729629,-227.88530453193937A288,288,0,0,1,-170.78806244612446,-231.89531630867126L-114.91389795992289,-155.47531583320298A193.33333333333334,193.33333333333334,0,0,0,-117.95706839957018,-153.17933213184114Z"><title>Patagioenas</title></path><path fill="#e377c2" display="" d="M-169.17358268992587,-233.07573644602053A288,288,0,0,1,-163.74045092430694,-236.92417506684419L-110.18860889049616,-158.8592088881065A193.33333333333334,193.33333333333334,0,0,0,-113.2994182037243,-156.65573597055223Z"><title>Metriopelia</title></path><path fill="#e377c2" display="" d="M-162.09121895911798,-238.0555328832902A288,288,0,0,1,-156.54486369090463,-241.7389204327596L-105.36374004272464,-162.09953751318022A193.33333333333334,193.33333333333334,0,0,0,-108.53937692530718,-159.99056670455255Z"><title>Columbina</title></path><path fill="#cccccc" display="" d="M-154.8623699625632,-242.82019349629513A288,288,0,0,1,-149.20780355041742,-246.3352012191113L-100.44365175271956,-165.19337335485397A193.33333333333334,193.33333333333334,0,0,0,-103.68124631438329,-163.1808105767157Z"><title>Nothoprocta</title></path><path fill="#cccccc" display="" d="M-147.49356856412155,-247.36541236037985A288,288,0,0,1,-141.7359011594068,-250.7088636696574L-95.4327904084181,-168.13792044818658A193.33333333333334,193.33333333333334,0,0,0,-98.7294167664237,-166.22358449612256Z"><title>Eudromia</title></path><path fill="#de32ea" display="" d="M-139.99147410560064,-251.68708186504318A288,288,0,0,1,-134.1359090342298,-254.8559552130592L-90.3356844312877,-170.93051774363929A193.33333333333334,193.33333333333334,0,0,0,-93.68836335461194,-169.11613864357238Z"><title>Sephanoides</title></path><path fill="#de32ea" display="" d="M-132.36286638856816,-255.7812964260719A288,288,0,0,1,-126.41469544864779,-258.7727280349025L-85.15694018389625,-173.568641511922A193.33333333333334,193.33333333333334,0,0,0,-88.56264178562606,-171.85585895665199Z"><title>Oreotrochilus</title></path><path fill="#de32ea" display="" d="M-124.6146395473016,-259.6443560151002A288,288,0,0,1,-118.57923822682196,-262.45564246467745L-79.90123780704465,-176.0499076247411A193.33333333333334,193.33333333333334,0,0,0,-83.35688428255008,-174.44026949211968Z"><title>Eulidia</title></path><path fill="#de32ea" display="" d="M-116.75379581841317,-263.2727695034036A288,288,0,0,1,-110.6366184373059,-265.90137017465327L-74.57332699022439,-178.37207370938663A193.33333333333334,193.33333333333334,0,0,0,-78.07579539863585,-176.86703466346728Z"><title>Rhodopis</title></path><path fill="#de32ea" display="" d="M-108.78743921278024,-266.6632578169059A288,288,0,0,1,-102.59401399373408,-269.10679718775873L-69.1780226792227,-180.53304117521182A193.33333333333334,193.33333333333334,0,0,0,-72.72414776569872,-179.1339613516393Z"><title>Patagonas</title></path><path fill="#cccccc" display="" d="M-100.72276909550025,-269.81275689954794A288,288,0,0,1,-94.45869316798908,-272.0690266917491L-63.720200724754015,-182.53085711017422A193.33333333333334,193.33333333333334,0,0,0,-67.30677778098894,-181.23900088700103Z"><title>Pardirallus</title></path><path fill="#cccccc" display="" d="M-92.5670736796729,-272.7184204823393A288,288,0,0,1,-86.23800802171141,-274.7853816571166L-58.204793476050924,-184.36371604572315A193.33333333333334,193.33333333333334,0,0,0,-61.82858123643782,-183.1802509007644Z"><title>Laterallus</title></path><path fill="#cccccc" display="" d="M-84.32772343988636,-275.3776226555928A288,288,0,0,1,-61.13840411199186,-281.4357751648478L-41.36313700264431,-188.8567411427992A193.33333333333334,193.33333333333334,0,0,0,-56.29450889422584,-184.95595704419932Z"><title>Fulica</title></path><path fill="#cccccc" display="" d="M-59.18254209488815,-281.8535554347094A288,288,0,0,1,-52.65122412609706,-283.1463377796427L-35.66768506917948,-190.01472053391973A193.33333333333334,193.33333333333334,0,0,0,-39.407274985540575,-189.27452141266073Z"><title>Porphyriops</title></path><path fill="#cccccc" display="" d="M-50.68368801290978,-283.5051388765467A288,288,0,0,1,-35.541831122085036,-285.79849236916766L-24.185256506899623,-191.81462703733845A193.33333333333334,193.33333333333334,0,0,0,-33.70014895599226,-190.37352163082375Z"><title>Spheniscus</title></path><path fill="#cccccc" display="" d="M-33.556290072052725,-286.03841594548146A288,288,0,0,1,-18.30398752495026,-287.4177517842043L-12.615420783956996,-192.9213024427875A193.33333333333334,193.33333333333334,0,0,0,-22.199715456867295,-192.05455061365222Z"><title>Eudyptes</title></path><path fill="#cccccc" display="" d="M-16.30761741836624,-287.5379307398177A288,288,0,0,1,-0.9999920729484716,-287.99826391118063L-0.999992072948295,-193.33074715014118A193.33333333333334,193.33333333333334,0,0,0,-10.619050677372961,-193.04148139840092Z"><title>Aptenodytes</title></path></g><g id="labels" transform="translate(402.5,300)" text-anchor="middle"><text transform="rotate(90) translate(48.333333333333336,0) rotate(180)"><tspan x="0" y="4" style="font-family: Arial, sans-serif; font-size: 10px; fill: black; font-weight: normal; font-style: italic;"/></text><text transform="rotate(-83.11004784688996) translate(145,0) rotate(0)"><tspan x="0" y="4" style="font-family: Arial, sans-serif; font-size: 10px; fill: black; font-weight: normal; font-style: italic;">Accipitriformes</tspan></text><text transform="rotate(-71.91387559808612) translate(145,0) rotate(0)"><tspan x="0" y="4" style="font-family: Arial, sans-serif; font-size: 10px; fill: black; font-weight: normal; font-style: italic;">Procellariiformes</tspan></text><text transform="rotate(-66.7464114832536) translate(145,0) rotate(0)"><tspan x="0" y="4" style="font-family: Arial, sans-serif; font-size: 10px; fill: black; font-weight: normal; font-style: italic;">Rheiformes</tspan></text><text transform="rotate(-17.655502392344502) translate(145,0) rotate(0)"><tspan x="0" y="4" style="font-family: Arial, sans-serif; font-size: 10px; fill: black; font-weight: normal; font-style: italic;">Passeriformes</tspan></text><text transform="rotate(38.32535885167462) translate(145,0) rotate(0)"><tspan x="0" y="4" style="font-family: Arial, sans-serif; font-size: 10px; fill: black; font-weight: normal; font-style: italic;">Pelecaniformes</tspan></text><text transform="rotate(83.97129186602865) translate(145,0) rotate(0)"><tspan x="0" y="4" style="font-family: Arial, sans-serif; font-size: 10px; fill: black; font-weight: normal; font-style: italic;">Charadriiformes</tspan></text><text transform="rotate(125.31100478468895) translate(145,0) rotate(180)"><tspan x="0" y="4" style="font-family: Arial, sans-serif; font-size: 10px; fill: black; font-weight: normal; font-style: italic;">Podicipediformes</tspan></text><text transform="rotate(133.06220095693774) translate(145,0) rotate(180)"><tspan x="0" y="4" style="font-family: Arial, sans-serif; font-size: 10px; fill: black; font-weight: normal; font-style: italic;">Psittaciformes</tspan></text><text transform="rotate(156.31578947368413) translate(145,0) rotate(180)"><tspan x="0" y="4" style="font-family: Arial, sans-serif; font-size: 10px; fill: black; font-weight: normal; font-style: italic;">Anseriformes</tspan></text><text transform="rotate(180.43062200956933) translate(145,0) rotate(180)"><tspan x="0" y="4" style="font-family: Arial, sans-serif; font-size: 10px; fill: black; font-weight: normal; font-style: italic;">Falconiformes</tspan></text><text transform="rotate(188.18181818181813) translate(145,0) rotate(180)"><tspan x="0" y="4" style="font-family: Arial, sans-serif; font-size: 10px; fill: black; font-weight: normal; font-style: italic;">Piciformes</tspan></text><text transform="rotate(193.3492822966507) translate(145,0) rotate(180)"><tspan x="0" y="4" style="font-family: Arial, sans-serif; font-size: 10px; fill: black; font-weight: normal; font-style: italic;">Cathartiformes</tspan></text><text transform="rotate(201.1004784688995) translate(145,0) rotate(180)"><tspan x="0" y="4" style="font-family: Arial, sans-serif; font-size: 10px; fill: black; font-weight: normal; font-style: italic;">Strigiformes</tspan></text><text transform="rotate(207.12918660287085) translate(145,0) rotate(180)"><tspan x="0" y="4" style="font-family: Arial, sans-serif; font-size: 10px; fill: black; font-weight: normal; font-style: italic;">Galliformes</tspan></text><text transform="rotate(213.15789473684208) translate(145,0) rotate(180)"><tspan x="0" y="4" style="font-family: Arial, sans-serif; font-size: 10px; fill: black; font-weight: normal; font-style: italic;">Suliformes</tspan></text><text transform="rotate(220.90909090909088) translate(145,0) rotate(180)"><tspan x="0" y="4" style="font-family: Arial, sans-serif; font-size: 10px; fill: black; font-weight: normal; font-style: italic;">Phoenicopteriformes</tspan></text><text transform="rotate(224.35406698564594) translate(145,0) rotate(180)"><tspan x="0" y="4" style="font-family: Arial, sans-serif; font-size: 10px; fill: black; font-weight: normal; font-style: italic;">Caprimulgiformes</tspan></text><text transform="rotate(226.0765550239234) translate(145,0) rotate(180)"><tspan x="0" y="4" style="font-family: Arial, sans-serif; font-size: 10px; fill: black; font-weight: normal; font-style: italic;">Coraciiformes</tspan></text><text transform="rotate(232.10526315789474) translate(145,0) rotate(180)"><tspan x="0" y="4" style="font-family: Arial, sans-serif; font-size: 10px; fill: black; font-weight: normal; font-style: italic;">Columbiformes</tspan></text><text transform="rotate(238.99521531100476) translate(145,0) rotate(180)"><tspan x="0" y="4" style="font-family: Arial, sans-serif; font-size: 10px; fill: black; font-weight: normal; font-style: italic;">Tinamiformes</tspan></text><text transform="rotate(245.02392344497605) translate(145,0) rotate(180)"><tspan x="0" y="4" style="font-family: Arial, sans-serif; font-size: 10px; fill: black; font-weight: normal; font-style: italic;">Apodiformes</tspan></text><text transform="rotate(254.49760765550235) translate(145,0) rotate(180)"><tspan x="0" y="4" style="font-family: Arial, sans-serif; font-size: 10px; fill: black; font-weight: normal; font-style: italic;">Gruiformes</tspan></text><text transform="rotate(264.83253588516743) translate(145,0) rotate(180)"><tspan x="0" y="4" style="font-family: Arial, sans-serif; font-size: 10px; fill: black; font-weight: normal; font-style: italic;">Sphenisciformes</tspan></text><text transform="rotate(-88.27751196172248) translate(241.66666666666669,0) rotate(0)"><tspan x="0" y="4" style="font-family: Arial, sans-serif; font-size: 10px; fill: black; font-weight: normal; font-style: italic;">Buteo</tspan></text><text transform="rotate(-85.69377990430623) translate(241.66666666666669,0) rotate(0)"><tspan x="0" y="4" style="font-family: Arial, sans-serif; font-size: 10px; fill: black; font-weight: normal; font-style: italic;">Geranoaetus</tspan></text><text transform="rotate(-83.97129186602871) translate(241.66666666666669,0) rotate(0)"><tspan x="0" y="4" style="font-family: Arial, sans-serif; font-size: 10px; fill: black; font-weight: normal; font-style: italic;">Pandion</tspan></text><text transform="rotate(-82.2488038277512) translate(241.66666666666669,0) rotate(0)"><tspan x="0" y="4" style="font-family: Arial, sans-serif; font-size: 10px; fill: black; font-weight: normal; font-style: italic;">Elanus</tspan></text><text transform="rotate(-80.52631578947368) translate(241.66666666666669,0) rotate(0)"><tspan x="0" y="4" style="font-family: Arial, sans-serif; font-size: 10px; fill: black; font-weight: normal; font-style: italic;">Parabuteo</tspan></text><text transform="rotate(-78.80382775119617) translate(241.66666666666669,0) rotate(0)"><tspan x="0" y="4" style="font-family: Arial, sans-serif; font-size: 10px; fill: black; font-weight: normal; font-style: italic;">Accipiter</tspan></text><text transform="rotate(-77.08133971291866) translate(241.66666666666669,0) rotate(0)"><tspan x="0" y="4" style="font-family: Arial, sans-serif; font-size: 10px; fill: black; font-weight: normal; font-style: italic;">Cinereous</tspan></text><text transform="rotate(-75.35885167464114) translate(241.66666666666669,0) rotate(0)"><tspan x="0" y="4" style="font-family: Arial, sans-serif; font-size: 10px; fill: black; font-weight: normal; font-style: italic;">Thalassarche</tspan></text><text transform="rotate(-73.63636363636364) translate(241.66666666666669,0) rotate(0)"><tspan x="0" y="4" style="font-family: Arial, sans-serif; font-size: 10px; fill: black; font-weight: normal; font-style: italic;">Diomedea</tspan></text><text transform="rotate(-71.91387559808612) translate(241.66666666666669,0) rotate(0)"><tspan x="0" y="4" style="font-family: Arial, sans-serif; font-size: 10px; fill: black; font-weight: normal; font-style: italic;">Ardenna</tspan></text><text transform="rotate(-70.19138755980862) translate(241.66666666666669,0) rotate(0)"><tspan x="0" y="4" style="font-family: Arial, sans-serif; font-size: 10px; fill: black; font-weight: normal; font-style: italic;">Oceanites</tspan></text><text transform="rotate(-68.4688995215311) translate(241.66666666666669,0) rotate(0)"><tspan x="0" y="4" style="font-family: Arial, sans-serif; font-size: 10px; fill: black; font-weight: normal; font-style: italic;">Macronectes</tspan></text><text transform="rotate(-66.7464114832536) translate(241.66666666666669,0) rotate(0)"><tspan x="0" y="4" style="font-family: Arial, sans-serif; font-size: 10px; fill: black; font-weight: normal; font-style: italic;">Rhea</tspan></text><text transform="rotate(-65.02392344497608) translate(241.66666666666669,0) rotate(0)"><tspan x="0" y="4" style="font-family: Arial, sans-serif; font-size: 10px; fill: black; font-weight: normal; font-style: italic;">Anthus</tspan></text><text transform="rotate(-63.301435406698566) translate(241.66666666666669,0) rotate(0)"><tspan x="0" y="4" style="font-family: Arial, sans-serif; font-size: 10px; fill: black; font-weight: normal; font-style: italic;">Upucerthia</tspan></text><text transform="rotate(-61.578947368421055) translate(241.66666666666669,0) rotate(0)"><tspan x="0" y="4" style="font-family: Arial, sans-serif; font-size: 10px; fill: black; font-weight: normal; font-style: italic;">Anairetes</tspan></text><text transform="rotate(-59.85645933014355) translate(241.66666666666669,0) rotate(0)"><tspan x="0" y="4" style="font-family: Arial, sans-serif; font-size: 10px; fill: black; font-weight: normal; font-style: italic;">Troglodytes</tspan></text><text transform="rotate(-58.13397129186603) translate(241.66666666666669,0) rotate(0)"><tspan x="0" y="4" style="font-family: Arial, sans-serif; font-size: 10px; fill: black; font-weight: normal; font-style: italic;">Cistothorus</tspan></text><text transform="rotate(-56.41148325358853) translate(241.66666666666669,0) rotate(0)"><tspan x="0" y="4" style="font-family: Arial, sans-serif; font-size: 10px; fill: black; font-weight: normal; font-style: italic;">Zonotrichia</tspan></text><text transform="rotate(-53.82775119617226) translate(241.66666666666669,0) rotate(0)"><tspan x="0" y="4" style="font-family: Arial, sans-serif; font-size: 10px; fill: black; font-weight: normal; font-style: italic;">Sicalis</tspan></text><text transform="rotate(-50.38277511961723) translate(241.66666666666669,0) rotate(0)"><tspan x="0" y="4" style="font-family: Arial, sans-serif; font-size: 10px; fill: black; font-weight: normal; font-style: italic;">Scelorchilus</tspan></text><text transform="rotate(-47.799043062200965) translate(241.66666666666669,0) rotate(0)"><tspan x="0" y="4" style="font-family: Arial, sans-serif; font-size: 10px; fill: black; font-weight: normal; font-style: italic;">Eugralla</tspan></text><text transform="rotate(-46.07655502392346) translate(241.66666666666669,0) rotate(0)"><tspan x="0" y="4" style="font-family: Arial, sans-serif; font-size: 10px; fill: black; font-weight: normal; font-style: italic;">Scytalopus</tspan></text><text transform="rotate(-42.63157894736843) translate(241.66666666666669,0) rotate(0)"><tspan x="0" y="4" style="font-family: Arial, sans-serif; font-size: 10px; fill: black; font-weight: normal; font-style: italic;">Cinclodes</tspan></text><text transform="rotate(-39.18660287081341) translate(241.66666666666669,0) rotate(0)"><tspan x="0" y="4" style="font-family: Arial, sans-serif; font-size: 10px; fill: black; font-weight: normal; font-style: italic;">Lessonia</tspan></text><text transform="rotate(-37.464114832535905) translate(241.66666666666669,0) rotate(0)"><tspan x="0" y="4" style="font-family: Arial, sans-serif; font-size: 10px; fill: black; font-weight: normal; font-style: italic;">Sylviorthorhynchus</tspan></text><text transform="rotate(-35.74162679425839) translate(241.66666666666669,0) rotate(0)"><tspan x="0" y="4" style="font-family: Arial, sans-serif; font-size: 10px; fill: black; font-weight: normal; font-style: italic;">Pygarrhichas</tspan></text><text transform="rotate(-29.7129186602871) translate(241.66666666666669,0) rotate(0)"><tspan x="0" y="4" style="font-family: Arial, sans-serif; font-size: 10px; fill: black; font-weight: normal; font-style: italic;">Phrygilus</tspan></text><text transform="rotate(-23.68421052631581) translate(241.66666666666669,0) rotate(0)"><tspan x="0" y="4" style="font-family: Arial, sans-serif; font-size: 10px; fill: black; font-weight: normal; font-style: italic;">Diuca</tspan></text><text transform="rotate(-21.961722488038305) translate(241.66666666666669,0) rotate(0)"><tspan x="0" y="4" style="font-family: Arial, sans-serif; font-size: 10px; fill: black; font-weight: normal; font-style: italic;">Xolmis</tspan></text><text transform="rotate(-17.655502392344516) translate(241.66666666666669,0) rotate(0)"><tspan x="0" y="4" style="font-family: Arial, sans-serif; font-size: 10px; fill: black; font-weight: normal; font-style: italic;">Muscisaxicola</tspan></text><text transform="rotate(-13.349282296650742) translate(241.66666666666669,0) rotate(0)"><tspan x="0" y="4" style="font-family: Arial, sans-serif; font-size: 10px; fill: black; font-weight: normal; font-style: italic;">Elaenia</tspan></text><text transform="rotate(-11.62679425837321) translate(241.66666666666669,0) rotate(0)"><tspan x="0" y="4" style="font-family: Arial, sans-serif; font-size: 10px; fill: black; font-weight: normal; font-style: italic;">Hirundo</tspan></text><text transform="rotate(-9.904306220095705) translate(241.66666666666669,0) rotate(0)"><tspan x="0" y="4" style="font-family: Arial, sans-serif; font-size: 10px; fill: black; font-weight: normal; font-style: italic;">Tachycineta</tspan></text><text transform="rotate(-8.181818181818173) translate(241.66666666666669,0) rotate(0)"><tspan x="0" y="4" style="font-family: Arial, sans-serif; font-size: 10px; fill: black; font-weight: normal; font-style: italic;">Pygochelidon</tspan></text><text transform="rotate(-6.459330143540683) translate(241.66666666666669,0) rotate(0)"><tspan x="0" y="4" style="font-family: Arial, sans-serif; font-size: 10px; fill: black; font-weight: normal; font-style: italic;">Passer</tspan></text><text transform="rotate(-4.73684210526315) translate(241.66666666666669,0) rotate(0)"><tspan x="0" y="4" style="font-family: Arial, sans-serif; font-size: 10px; fill: black; font-weight: normal; font-style: italic;">Pteroptochos</tspan></text><text transform="rotate(-2.15311004784688) translate(241.66666666666669,0) rotate(0)"><tspan x="0" y="4" style="font-family: Arial, sans-serif; font-size: 10px; fill: black; font-weight: normal; font-style: italic;">Carduelis</tspan></text><text transform="rotate(0.43062200956939023) translate(241.66666666666669,0) rotate(0)"><tspan x="0" y="4" style="font-family: Arial, sans-serif; font-size: 10px; fill: black; font-weight: normal; font-style: italic;">Sturnella</tspan></text><text transform="rotate(3.014354066985632) translate(241.66666666666669,0) rotate(0)"><tspan x="0" y="4" style="font-family: Arial, sans-serif; font-size: 10px; fill: black; font-weight: normal; font-style: italic;">Agriornis</tspan></text><text transform="rotate(5.598086124401917) translate(241.66666666666669,0) rotate(0)"><tspan x="0" y="4" style="font-family: Arial, sans-serif; font-size: 10px; fill: black; font-weight: normal; font-style: italic;">Geositta</tspan></text><text transform="rotate(7.320574162679435) translate(241.66666666666669,0) rotate(0)"><tspan x="0" y="4" style="font-family: Arial, sans-serif; font-size: 10px; fill: black; font-weight: normal; font-style: italic;">Molothrus</tspan></text><text transform="rotate(9.043062200956953) translate(241.66666666666669,0) rotate(0)"><tspan x="0" y="4" style="font-family: Arial, sans-serif; font-size: 10px; fill: black; font-weight: normal; font-style: italic;">Phytotoma</tspan></text><text transform="rotate(10.765550239234457) translate(241.66666666666669,0) rotate(0)"><tspan x="0" y="4" style="font-family: Arial, sans-serif; font-size: 10px; fill: black; font-weight: normal; font-style: italic;">Aphrastura</tspan></text><text transform="rotate(12.48803827751199) translate(241.66666666666669,0) rotate(0)"><tspan x="0" y="4" style="font-family: Arial, sans-serif; font-size: 10px; fill: black; font-weight: normal; font-style: italic;">Hymenops</tspan></text><text transform="rotate(14.21052631578948) translate(241.66666666666669,0) rotate(0)"><tspan x="0" y="4" style="font-family: Arial, sans-serif; font-size: 10px; fill: black; font-weight: normal; font-style: italic;">Pyrocephalus</tspan></text><text transform="rotate(15.933014354067012) translate(241.66666666666669,0) rotate(0)"><tspan x="0" y="4" style="font-family: Arial, sans-serif; font-size: 10px; fill: black; font-weight: normal; font-style: italic;">Tachuris</tspan></text><text transform="rotate(17.65550239234453) translate(241.66666666666669,0) rotate(0)"><tspan x="0" y="4" style="font-family: Arial, sans-serif; font-size: 10px; fill: black; font-weight: normal; font-style: italic;">Mimus</tspan></text><text transform="rotate(19.377990430622063) translate(241.66666666666669,0) rotate(0)"><tspan x="0" y="4" style="font-family: Arial, sans-serif; font-size: 10px; fill: black; font-weight: normal; font-style: italic;">Leptasthenura</tspan></text><text transform="rotate(21.100478468899553) translate(241.66666666666669,0) rotate(0)"><tspan x="0" y="4" style="font-family: Arial, sans-serif; font-size: 10px; fill: black; font-weight: normal; font-style: italic;">Curaeus</tspan></text><text transform="rotate(22.822966507177085) translate(241.66666666666669,0) rotate(0)"><tspan x="0" y="4" style="font-family: Arial, sans-serif; font-size: 10px; fill: black; font-weight: normal; font-style: italic;">Phleocryptes</tspan></text><text transform="rotate(24.545454545454575) translate(241.66666666666669,0) rotate(0)"><tspan x="0" y="4" style="font-family: Arial, sans-serif; font-size: 10px; fill: black; font-weight: normal; font-style: italic;">Agelaius</tspan></text><text transform="rotate(26.267942583732093) translate(241.66666666666669,0) rotate(0)"><tspan x="0" y="4" style="font-family: Arial, sans-serif; font-size: 10px; fill: black; font-weight: normal; font-style: italic;">Colorhamphus</tspan></text><text transform="rotate(27.990430622009583) translate(241.66666666666669,0) rotate(0)"><tspan x="0" y="4" style="font-family: Arial, sans-serif; font-size: 10px; fill: black; font-weight: normal; font-style: italic;">Melanodera</tspan></text><text transform="rotate(29.7129186602871) translate(241.66666666666669,0) rotate(0)"><tspan x="0" y="4" style="font-family: Arial, sans-serif; font-size: 10px; fill: black; font-weight: normal; font-style: italic;">Turdus</tspan></text><text transform="rotate(31.435406698564577) translate(241.66666666666669,0) rotate(0)"><tspan x="0" y="4" style="font-family: Arial, sans-serif; font-size: 10px; fill: black; font-weight: normal; font-style: italic;">Theristicus</tspan></text><text transform="rotate(33.15789473684207) translate(241.66666666666669,0) rotate(0)"><tspan x="0" y="4" style="font-family: Arial, sans-serif; font-size: 10px; fill: black; font-weight: normal; font-style: italic;">Plegadis</tspan></text><text transform="rotate(34.88038277511957) translate(241.66666666666669,0) rotate(0)"><tspan x="0" y="4" style="font-family: Arial, sans-serif; font-size: 10px; fill: black; font-weight: normal; font-style: italic;">Bubuculcus</tspan></text><text transform="rotate(36.602870813397075) translate(241.66666666666669,0) rotate(0)"><tspan x="0" y="4" style="font-family: Arial, sans-serif; font-size: 10px; fill: black; font-weight: normal; font-style: italic;">Egretta</tspan></text><text transform="rotate(39.186602870813346) translate(241.66666666666669,0) rotate(0)"><tspan x="0" y="4" style="font-family: Arial, sans-serif; font-size: 10px; fill: black; font-weight: normal; font-style: italic;">Ardea</tspan></text><text transform="rotate(41.77033492822963) translate(241.66666666666669,0) rotate(0)"><tspan x="0" y="4" style="font-family: Arial, sans-serif; font-size: 10px; fill: black; font-weight: normal; font-style: italic;">Ixobrychus</tspan></text><text transform="rotate(43.492822966507106) translate(241.66666666666669,0) rotate(0)"><tspan x="0" y="4" style="font-family: Arial, sans-serif; font-size: 10px; fill: black; font-weight: normal; font-style: italic;">Nycticorax</tspan></text><text transform="rotate(45.21531100478464) translate(241.66666666666669,0) rotate(0)"><tspan x="0" y="4" style="font-family: Arial, sans-serif; font-size: 10px; fill: black; font-weight: normal; font-style: italic;">Pelecanus</tspan></text><text transform="rotate(47.79904306220095) translate(241.66666666666669,0) rotate(0)"><tspan x="0" y="4" style="font-family: Arial, sans-serif; font-size: 10px; fill: black; font-weight: normal; font-style: italic;">Gallinago</tspan></text><text transform="rotate(50.38277511961721) translate(241.66666666666669,0) rotate(0)"><tspan x="0" y="4" style="font-family: Arial, sans-serif; font-size: 10px; fill: black; font-weight: normal; font-style: italic;">Nycticryphes</tspan></text><text transform="rotate(52.10526315789471) translate(241.66666666666669,0) rotate(0)"><tspan x="0" y="4" style="font-family: Arial, sans-serif; font-size: 10px; fill: black; font-weight: normal; font-style: italic;">Recurvirostra</tspan></text><text transform="rotate(53.827751196172215) translate(241.66666666666669,0) rotate(0)"><tspan x="0" y="4" style="font-family: Arial, sans-serif; font-size: 10px; fill: black; font-weight: normal; font-style: italic;">Phegornis</tspan></text><text transform="rotate(55.55023923444972) translate(241.66666666666669,0) rotate(0)"><tspan x="0" y="4" style="font-family: Arial, sans-serif; font-size: 10px; fill: black; font-weight: normal; font-style: italic;">Pluvialis</tspan></text><text transform="rotate(57.272727272727224) translate(241.66666666666669,0) rotate(0)"><tspan x="0" y="4" style="font-family: Arial, sans-serif; font-size: 10px; fill: black; font-weight: normal; font-style: italic;">Oreopholus</tspan></text><text transform="rotate(59.85645933014345) translate(241.66666666666669,0) rotate(0)"><tspan x="0" y="4" style="font-family: Arial, sans-serif; font-size: 10px; fill: black; font-weight: normal; font-style: italic;">Charadrius</tspan></text><text transform="rotate(62.440191387559764) translate(241.66666666666669,0) rotate(0)"><tspan x="0" y="4" style="font-family: Arial, sans-serif; font-size: 10px; fill: black; font-weight: normal; font-style: italic;">Pluvianellus</tspan></text><text transform="rotate(64.16267942583724) translate(241.66666666666669,0) rotate(0)"><tspan x="0" y="4" style="font-family: Arial, sans-serif; font-size: 10px; fill: black; font-weight: normal; font-style: italic;">Leucophaeus</tspan></text><text transform="rotate(69.33014354066978) translate(241.66666666666669,0) rotate(0)"><tspan x="0" y="4" style="font-family: Arial, sans-serif; font-size: 10px; fill: black; font-weight: normal; font-style: italic;">Larus</tspan></text><text transform="rotate(74.49760765550232) translate(241.66666666666669,0) rotate(0)"><tspan x="0" y="4" style="font-family: Arial, sans-serif; font-size: 10px; fill: black; font-weight: normal; font-style: italic;">Chroicocephalus</tspan></text><text transform="rotate(78.80382775119611) translate(241.66666666666669,0) rotate(0)"><tspan x="0" y="4" style="font-family: Arial, sans-serif; font-size: 10px; fill: black; font-weight: normal; font-style: italic;">Sterna</tspan></text><text transform="rotate(83.11004784688984) translate(241.66666666666669,0) rotate(0)"><tspan x="0" y="4" style="font-family: Arial, sans-serif; font-size: 10px; fill: black; font-weight: normal; font-style: italic;">Sternula</tspan></text><text transform="rotate(84.83253588516737) translate(241.66666666666669,0) rotate(0)"><tspan x="0" y="4" style="font-family: Arial, sans-serif; font-size: 10px; fill: black; font-weight: normal; font-style: italic;">Larosterna</tspan></text><text transform="rotate(87.41626794258363) translate(241.66666666666669,0) rotate(0)"><tspan x="0" y="4" style="font-family: Arial, sans-serif; font-size: 10px; fill: black; font-weight: normal; font-style: italic;">Thinocorus</tspan></text><text transform="rotate(89.99999999999989) translate(241.66666666666669,0) rotate(0)"><tspan x="0" y="4" style="font-family: Arial, sans-serif; font-size: 10px; fill: black; font-weight: normal; font-style: italic;">Attagis</tspan></text><text transform="rotate(91.72248803827739) translate(241.66666666666669,0) rotate(180)"><tspan x="0" y="4" style="font-family: Arial, sans-serif; font-size: 10px; fill: black; font-weight: normal; font-style: italic;">Himantopus</tspan></text><text transform="rotate(95.16746411483243) translate(241.66666666666669,0) rotate(180)"><tspan x="0" y="4" style="font-family: Arial, sans-serif; font-size: 10px; fill: black; font-weight: normal; font-style: italic;">Haematopus</tspan></text><text transform="rotate(100.33492822966497) translate(241.66666666666669,0) rotate(180)"><tspan x="0" y="4" style="font-family: Arial, sans-serif; font-size: 10px; fill: black; font-weight: normal; font-style: italic;">Tringa</tspan></text><text transform="rotate(104.64114832535876) translate(241.66666666666669,0) rotate(180)"><tspan x="0" y="4" style="font-family: Arial, sans-serif; font-size: 10px; fill: black; font-weight: normal; font-style: italic;">Calidris</tspan></text><text transform="rotate(107.22488038277498) translate(241.66666666666669,0) rotate(180)"><tspan x="0" y="4" style="font-family: Arial, sans-serif; font-size: 10px; fill: black; font-weight: normal; font-style: italic;">Aphriza</tspan></text><text transform="rotate(108.94736842105252) translate(241.66666666666669,0) rotate(180)"><tspan x="0" y="4" style="font-family: Arial, sans-serif; font-size: 10px; fill: black; font-weight: normal; font-style: italic;">Arenaria</tspan></text><text transform="rotate(111.53110047846877) translate(241.66666666666669,0) rotate(180)"><tspan x="0" y="4" style="font-family: Arial, sans-serif; font-size: 10px; fill: black; font-weight: normal; font-style: italic;">Phalaropus</tspan></text><text transform="rotate(114.11483253588506) translate(241.66666666666669,0) rotate(180)"><tspan x="0" y="4" style="font-family: Arial, sans-serif; font-size: 10px; fill: black; font-weight: normal; font-style: italic;">Vanellus</tspan></text><text transform="rotate(115.83732057416253) translate(241.66666666666669,0) rotate(180)"><tspan x="0" y="4" style="font-family: Arial, sans-serif; font-size: 10px; fill: black; font-weight: normal; font-style: italic;">Rynchops</tspan></text><text transform="rotate(117.55980861244004) translate(241.66666666666669,0) rotate(180)"><tspan x="0" y="4" style="font-family: Arial, sans-serif; font-size: 10px; fill: black; font-weight: normal; font-style: italic;">Stercorarius</tspan></text><text transform="rotate(119.28229665071757) translate(241.66666666666669,0) rotate(180)"><tspan x="0" y="4" style="font-family: Arial, sans-serif; font-size: 10px; fill: black; font-weight: normal; font-style: italic;">Numenius</tspan></text><text transform="rotate(121.00478468899507) translate(241.66666666666669,0) rotate(180)"><tspan x="0" y="4" style="font-family: Arial, sans-serif; font-size: 10px; fill: black; font-weight: normal; font-style: italic;">Limosa</tspan></text><text transform="rotate(123.58851674641144) translate(241.66666666666669,0) rotate(180)"><tspan x="0" y="4" style="font-family: Arial, sans-serif; font-size: 10px; fill: black; font-weight: normal; font-style: italic;">Podiceps</tspan></text><text transform="rotate(126.1722488038277) translate(241.66666666666669,0) rotate(180)"><tspan x="0" y="4" style="font-family: Arial, sans-serif; font-size: 10px; fill: black; font-weight: normal; font-style: italic;">Podilymbus</tspan></text><text transform="rotate(127.89473684210517) translate(241.66666666666669,0) rotate(180)"><tspan x="0" y="4" style="font-family: Arial, sans-serif; font-size: 10px; fill: black; font-weight: normal; font-style: italic;">Rollandia</tspan></text><text transform="rotate(130.4784688995215) translate(241.66666666666669,0) rotate(180)"><tspan x="0" y="4" style="font-family: Arial, sans-serif; font-size: 10px; fill: black; font-weight: normal; font-style: italic;">Enicognathus</tspan></text><text transform="rotate(133.06220095693774) translate(241.66666666666669,0) rotate(180)"><tspan x="0" y="4" style="font-family: Arial, sans-serif; font-size: 10px; fill: black; font-weight: normal; font-style: italic;">Myiopsitta</tspan></text><text transform="rotate(134.78468899521525) translate(241.66666666666669,0) rotate(180)"><tspan x="0" y="4" style="font-family: Arial, sans-serif; font-size: 10px; fill: black; font-weight: normal; font-style: italic;">Cyanoliseus</tspan></text><text transform="rotate(136.50717703349278) translate(241.66666666666669,0) rotate(180)"><tspan x="0" y="4" style="font-family: Arial, sans-serif; font-size: 10px; fill: black; font-weight: normal; font-style: italic;">Psilopsiagon</tspan></text><text transform="rotate(141.6746411483253) translate(241.66666666666669,0) rotate(180)"><tspan x="0" y="4" style="font-family: Arial, sans-serif; font-size: 10px; fill: black; font-weight: normal; font-style: italic;">Chloephaga</tspan></text><text transform="rotate(146.84210526315783) translate(241.66666666666669,0) rotate(180)"><tspan x="0" y="4" style="font-family: Arial, sans-serif; font-size: 10px; fill: black; font-weight: normal; font-style: italic;">Coscoroba</tspan></text><text transform="rotate(148.5645933014353) translate(241.66666666666669,0) rotate(180)"><tspan x="0" y="4" style="font-family: Arial, sans-serif; font-size: 10px; fill: black; font-weight: normal; font-style: italic;">Cygnus</tspan></text><text transform="rotate(150.28708133971287) translate(241.66666666666669,0) rotate(180)"><tspan x="0" y="4" style="font-family: Arial, sans-serif; font-size: 10px; fill: black; font-weight: normal; font-style: italic;">Speculanas</tspan></text><text transform="rotate(157.17703349282286) translate(241.66666666666669,0) rotate(180)"><tspan x="0" y="4" style="font-family: Arial, sans-serif; font-size: 10px; fill: black; font-weight: normal; font-style: italic;">Anas</tspan></text><text transform="rotate(164.06698564593287) translate(241.66666666666669,0) rotate(180)"><tspan x="0" y="4" style="font-family: Arial, sans-serif; font-size: 10px; fill: black; font-weight: normal; font-style: italic;">Merganetta</tspan></text><text transform="rotate(165.78947368421044) translate(241.66666666666669,0) rotate(180)"><tspan x="0" y="4" style="font-family: Arial, sans-serif; font-size: 10px; fill: black; font-weight: normal; font-style: italic;">Lophonetta</tspan></text><text transform="rotate(167.5119617224879) translate(241.66666666666669,0) rotate(180)"><tspan x="0" y="4" style="font-family: Arial, sans-serif; font-size: 10px; fill: black; font-weight: normal; font-style: italic;">Netta</tspan></text><text transform="rotate(170.0956937799042) translate(241.66666666666669,0) rotate(180)"><tspan x="0" y="4" style="font-family: Arial, sans-serif; font-size: 10px; fill: black; font-weight: normal; font-style: italic;">Oxyura</tspan></text><text transform="rotate(172.67942583732048) translate(241.66666666666669,0) rotate(180)"><tspan x="0" y="4" style="font-family: Arial, sans-serif; font-size: 10px; fill: black; font-weight: normal; font-style: italic;">Heteronetta</tspan></text><text transform="rotate(174.40191387559793) translate(241.66666666666669,0) rotate(180)"><tspan x="0" y="4" style="font-family: Arial, sans-serif; font-size: 10px; fill: black; font-weight: normal; font-style: italic;">Tachyeres</tspan></text><text transform="rotate(176.12440191387554) translate(241.66666666666669,0) rotate(180)"><tspan x="0" y="4" style="font-family: Arial, sans-serif; font-size: 10px; fill: black; font-weight: normal; font-style: italic;">Phalcoboenus</tspan></text><text transform="rotate(179.56937799043055) translate(241.66666666666669,0) rotate(180)"><tspan x="0" y="4" style="font-family: Arial, sans-serif; font-size: 10px; fill: black; font-weight: normal; font-style: italic;">Falco</tspan></text><text transform="rotate(183.01435406698556) translate(241.66666666666669,0) rotate(180)"><tspan x="0" y="4" style="font-family: Arial, sans-serif; font-size: 10px; fill: black; font-weight: normal; font-style: italic;">Milvago</tspan></text><text transform="rotate(184.736842105263) translate(241.66666666666669,0) rotate(180)"><tspan x="0" y="4" style="font-family: Arial, sans-serif; font-size: 10px; fill: black; font-weight: normal; font-style: italic;">Caracara</tspan></text><text transform="rotate(186.45933014354057) translate(241.66666666666669,0) rotate(180)"><tspan x="0" y="4" style="font-family: Arial, sans-serif; font-size: 10px; fill: black; font-weight: normal; font-style: italic;">Picoides</tspan></text><text transform="rotate(188.18181818181813) translate(241.66666666666669,0) rotate(180)"><tspan x="0" y="4" style="font-family: Arial, sans-serif; font-size: 10px; fill: black; font-weight: normal; font-style: italic;">Campephilus</tspan></text><text transform="rotate(189.90430622009558) translate(241.66666666666669,0) rotate(180)"><tspan x="0" y="4" style="font-family: Arial, sans-serif; font-size: 10px; fill: black; font-weight: normal; font-style: italic;">Colaptes</tspan></text><text transform="rotate(191.62679425837314) translate(241.66666666666669,0) rotate(180)"><tspan x="0" y="4" style="font-family: Arial, sans-serif; font-size: 10px; fill: black; font-weight: normal; font-style: italic;">Vultur</tspan></text><text transform="rotate(193.3492822966507) translate(241.66666666666669,0) rotate(180)"><tspan x="0" y="4" style="font-family: Arial, sans-serif; font-size: 10px; fill: black; font-weight: normal; font-style: italic;">Cathartes</tspan></text><text transform="rotate(195.07177033492815) translate(241.66666666666669,0) rotate(180)"><tspan x="0" y="4" style="font-family: Arial, sans-serif; font-size: 10px; fill: black; font-weight: normal; font-style: italic;">Coragyps</tspan></text><text transform="rotate(196.79425837320565) translate(241.66666666666669,0) rotate(180)"><tspan x="0" y="4" style="font-family: Arial, sans-serif; font-size: 10px; fill: black; font-weight: normal; font-style: italic;">Glaucidium</tspan></text><text transform="rotate(198.51674641148327) translate(241.66666666666669,0) rotate(180)"><tspan x="0" y="4" style="font-family: Arial, sans-serif; font-size: 10px; fill: black; font-weight: normal; font-style: italic;">Strix</tspan></text><text transform="rotate(200.23923444976072) translate(241.66666666666669,0) rotate(180)"><tspan x="0" y="4" style="font-family: Arial, sans-serif; font-size: 10px; fill: black; font-weight: normal; font-style: italic;">Tyto</tspan></text><text transform="rotate(201.96172248803828) translate(241.66666666666669,0) rotate(180)"><tspan x="0" y="4" style="font-family: Arial, sans-serif; font-size: 10px; fill: black; font-weight: normal; font-style: italic;">Asio</tspan></text><text transform="rotate(203.68421052631567) translate(241.66666666666669,0) rotate(180)"><tspan x="0" y="4" style="font-family: Arial, sans-serif; font-size: 10px; fill: black; font-weight: normal; font-style: italic;">Athene</tspan></text><text transform="rotate(205.40669856459328) translate(241.66666666666669,0) rotate(180)"><tspan x="0" y="4" style="font-family: Arial, sans-serif; font-size: 10px; fill: black; font-weight: normal; font-style: italic;">Bubo</tspan></text><text transform="rotate(207.12918660287085) translate(241.66666666666669,0) rotate(180)"><tspan x="0" y="4" style="font-family: Arial, sans-serif; font-size: 10px; fill: black; font-weight: normal; font-style: italic;">Callipela</tspan></text><text transform="rotate(212.2966507177033) translate(241.66666666666669,0) rotate(180)"><tspan x="0" y="4" style="font-family: Arial, sans-serif; font-size: 10px; fill: black; font-weight: normal; font-style: italic;">Phalacrocorax</tspan></text><text transform="rotate(217.4641148325358) translate(241.66666666666669,0) rotate(180)"><tspan x="0" y="4" style="font-family: Arial, sans-serif; font-size: 10px; fill: black; font-weight: normal; font-style: italic;">Sula</tspan></text><text transform="rotate(219.18660287081337) translate(241.66666666666669,0) rotate(180)"><tspan x="0" y="4" style="font-family: Arial, sans-serif; font-size: 10px; fill: black; font-weight: normal; font-style: italic;">Phoenicopterus</tspan></text><text transform="rotate(221.7703349282296) translate(241.66666666666669,0) rotate(180)"><tspan x="0" y="4" style="font-family: Arial, sans-serif; font-size: 10px; fill: black; font-weight: normal; font-style: italic;">Phoenicoparrus</tspan></text><text transform="rotate(224.35406698564594) translate(241.66666666666669,0) rotate(180)"><tspan x="0" y="4" style="font-family: Arial, sans-serif; font-size: 10px; fill: black; font-weight: normal; font-style: italic;">Caprimulgus</tspan></text><text transform="rotate(226.0765550239234) translate(241.66666666666669,0) rotate(180)"><tspan x="0" y="4" style="font-family: Arial, sans-serif; font-size: 10px; fill: black; font-weight: normal; font-style: italic;">Ceryle</tspan></text><text transform="rotate(228.66028708133967) translate(241.66666666666669,0) rotate(180)"><tspan x="0" y="4" style="font-family: Arial, sans-serif; font-size: 10px; fill: black; font-weight: normal; font-style: italic;">Zenaida</tspan></text><text transform="rotate(231.24401913875596) translate(241.66666666666669,0) rotate(180)"><tspan x="0" y="4" style="font-family: Arial, sans-serif; font-size: 10px; fill: black; font-weight: normal; font-style: italic;">Columba</tspan></text><text transform="rotate(232.9665071770334) translate(241.66666666666669,0) rotate(180)"><tspan x="0" y="4" style="font-family: Arial, sans-serif; font-size: 10px; fill: black; font-weight: normal; font-style: italic;">Patagioenas</tspan></text><text transform="rotate(234.68899521531097) translate(241.66666666666669,0) rotate(180)"><tspan x="0" y="4" style="font-family: Arial, sans-serif; font-size: 10px; fill: black; font-weight: normal; font-style: italic;">Metriopelia</tspan></text><text transform="rotate(236.41148325358841) translate(241.66666666666669,0) rotate(180)"><tspan x="0" y="4" style="font-family: Arial, sans-serif; font-size: 10px; fill: black; font-weight: normal; font-style: italic;">Columbina</tspan></text><text transform="rotate(238.13397129186598) translate(241.66666666666669,0) rotate(180)"><tspan x="0" y="4" style="font-family: Arial, sans-serif; font-size: 10px; fill: black; font-weight: normal; font-style: italic;">Nothoprocta</tspan></text><text transform="rotate(239.85645933014348) translate(241.66666666666669,0) rotate(180)"><tspan x="0" y="4" style="font-family: Arial, sans-serif; font-size: 10px; fill: black; font-weight: normal; font-style: italic;">Eudromia</tspan></text><text transform="rotate(241.57894736842098) translate(241.66666666666669,0) rotate(180)"><tspan x="0" y="4" style="font-family: Arial, sans-serif; font-size: 10px; fill: black; font-weight: normal; font-style: italic;">Sephanoides</tspan></text><text transform="rotate(243.30143540669854) translate(241.66666666666669,0) rotate(180)"><tspan x="0" y="4" style="font-family: Arial, sans-serif; font-size: 10px; fill: black; font-weight: normal; font-style: italic;">Oreotrochilus</tspan></text><text transform="rotate(245.023923444976) translate(241.66666666666669,0) rotate(180)"><tspan x="0" y="4" style="font-family: Arial, sans-serif; font-size: 10px; fill: black; font-weight: normal; font-style: italic;">Eulidia</tspan></text><text transform="rotate(246.74641148325355) translate(241.66666666666669,0) rotate(180)"><tspan x="0" y="4" style="font-family: Arial, sans-serif; font-size: 10px; fill: black; font-weight: normal; font-style: italic;">Rhodopis</tspan></text><text transform="rotate(248.46889952153094) translate(241.66666666666669,0) rotate(180)"><tspan x="0" y="4" style="font-family: Arial, sans-serif; font-size: 10px; fill: black; font-weight: normal; font-style: italic;">Patagonas</tspan></text><text transform="rotate(250.1913875598085) translate(241.66666666666669,0) rotate(180)"><tspan x="0" y="4" style="font-family: Arial, sans-serif; font-size: 10px; fill: black; font-weight: normal; font-style: italic;">Pardirallus</tspan></text><text transform="rotate(251.91387559808612) translate(241.66666666666669,0) rotate(180)"><tspan x="0" y="4" style="font-family: Arial, sans-serif; font-size: 10px; fill: black; font-weight: normal; font-style: italic;">Laterallus</tspan></text><text transform="rotate(255.35885167464107) translate(241.66666666666669,0) rotate(180)"><tspan x="0" y="4" style="font-family: Arial, sans-serif; font-size: 10px; fill: black; font-weight: normal; font-style: italic;">Fulica</tspan></text><text transform="rotate(258.8038277511961) translate(241.66666666666669,0) rotate(180)"><tspan x="0" y="4" style="font-family: Arial, sans-serif; font-size: 10px; fill: black; font-weight: normal; font-style: italic;">Porphyriops</tspan></text><text transform="rotate(261.38755980861237) translate(241.66666666666669,0) rotate(180)"><tspan x="0" y="4" style="font-family: Arial, sans-serif; font-size: 10px; fill: black; font-weight: normal; font-style: italic;">Spheniscus</tspan></text><text transform="rotate(264.8325358851674) translate(241.66666666666669,0) rotate(180)"><tspan x="0" y="4" style="font-family: Arial, sans-serif; font-size: 10px; fill: black; font-weight: normal; font-style: italic;">Eudyptes</tspan></text><text transform="rotate(268.2775119617224) translate(241.66666666666669,0) rotate(180)"><tspan x="0" y="4" style="font-family: Arial, sans-serif; font-size: 10px; fill: black; font-weight: normal; font-style: italic;">Aptenodytes</tspan></text></g></svg>